<svg xmlns="http://www.w3.org/2000/svg" viewBox="0 0 1077.8 429.74"><defs><style>.cls-1{fill:#f5f5f5;}.cls-2{fill:#eff6ff;}.cls-3{fill:#407bff;}.cls-4{fill:#1d4ed8;}.cls-5{fill:#93c5fd;}.cls-14,.cls-18,.cls-19,.cls-6{fill:#fff;}.cls-7{fill:#dbeafe;}.cls-8{fill:#2563eb;}.cls-9{fill:#60a5fa;}.cls-10{fill:#263238;}.cls-11,.cls-12{opacity:0.2;}.cls-12,.cls-15{isolation:isolate;}.cls-13{fill:#eec1bb;}.cls-14{opacity:0.3;}.cls-15{opacity:0.1;}.cls-16{fill:#d58745;}.cls-17{fill:#2e353a;}.cls-18{opacity:0.6;}.cls-19{opacity:0.5;}</style></defs><g id="Shadow"><ellipse id="_Path_" data-name="&lt;Path&gt;" class="cls-1" cx="538.9" cy="398.26" rx="538.9" ry="31.47"/></g><g id="Books"><path class="cls-2" d="M832.31,307.62H325.84V413.24H832.49A414,414,0,0,1,832.31,307.62Z" transform="translate(-30.76 -22.81)"/><path class="cls-3" d="M418.13,418.8H259l-1.63-1.63a81.17,81.17,0,0,1,0-114.8l1.63-1.63H418.13l-9.49,9.49a70.06,70.06,0,0,0,0,99.08Z" transform="translate(-30.76 -22.81)"/><path class="cls-4" d="M418.13,418.8H259l-1.63-1.63a81.17,81.17,0,0,1,0-114.8l1.63-1.63H418.13l-9.49,9.49a70.06,70.06,0,0,0,0,99.08Z" transform="translate(-30.76 -22.81)"/><path class="cls-5" d="M837.52,418.8H407.58l-.46-.46c-14.85-14.86-24.17-34.66-24.9-55.66A80.68,80.68,0,0,1,406,302.37l1.63-1.63H837.52a5.56,5.56,0,0,1,5.56,5.56h0a5.56,5.56,0,0,1-5.56,5.56H412.23a70.07,70.07,0,0,0,0,95.82H837.52a5.56,5.56,0,0,1,5.56,5.56h0A5.56,5.56,0,0,1,837.52,418.8Z" transform="translate(-30.76 -22.81)"/><path class="cls-6" d="M792.57,347H768.25a4.17,4.17,0,0,1-4.17-4.17h0a4.17,4.17,0,0,1,4.17-4.17h24.32a4.17,4.17,0,0,1,4.16,4.17h0A4.17,4.17,0,0,1,792.57,347Z" transform="translate(-30.76 -22.81)"/><path class="cls-6" d="M736.28,347H510.45a4.17,4.17,0,0,1-4.17-4.17h0a4.17,4.17,0,0,1,4.17-4.17H736.28a4.17,4.17,0,0,1,4.17,4.17h0A4.17,4.17,0,0,1,736.28,347Z" transform="translate(-30.76 -22.81)"/><path class="cls-6" d="M479.88,347h-50a4.17,4.17,0,0,1-4.17-4.17h0a4.17,4.17,0,0,1,4.17-4.17h50a4.17,4.17,0,0,1,4.17,4.17h0A4.17,4.17,0,0,1,479.88,347Z" transform="translate(-30.76 -22.81)"/><path class="cls-6" d="M792.57,382.21h-214a4.17,4.17,0,0,1-4.17-4.17h0a4.17,4.17,0,0,1,4.17-4.17h214a4.16,4.16,0,0,1,4.16,4.17h0A4.17,4.17,0,0,1,792.57,382.21Z" transform="translate(-30.76 -22.81)"/><path class="cls-6" d="M547.28,382.21H429.85a4.17,4.17,0,0,1-4.17-4.17h0a4.17,4.17,0,0,1,4.17-4.17H547.28a4.17,4.17,0,0,1,4.17,4.17h0A4.17,4.17,0,0,1,547.28,382.21Z" transform="translate(-30.76 -22.81)"/><path class="cls-2" d="M818.89,94.43H363.06v95H819A372.85,372.85,0,0,1,818.89,94.43Z" transform="translate(-30.76 -22.81)"/><path class="cls-4" d="M446.12,194.48H302.86L301.39,193a73.07,73.07,0,0,1,0-103.33l1.47-1.46H446.12l-8.54,8.54a63,63,0,0,0,0,89.17Z" transform="translate(-30.76 -22.81)"/><path class="cls-5" d="M823.57,194.48h-387l-.41-.41c-13.37-13.38-21.75-31.19-22.41-50.1a72.65,72.65,0,0,1,21.36-54.28l1.46-1.46h387a5,5,0,0,1,5,5h0a5,5,0,0,1-5,5H440.81a63.06,63.06,0,0,0,0,86.25H823.57a5,5,0,0,1,5,5h0A5,5,0,0,1,823.57,194.48Z" transform="translate(-30.76 -22.81)"/><path class="cls-6" d="M783.11,129.86H761.23a3.75,3.75,0,0,1-3.76-3.75h0a3.75,3.75,0,0,1,3.76-3.75h21.88a3.75,3.75,0,0,1,3.75,3.75h0A3.75,3.75,0,0,1,783.11,129.86Z" transform="translate(-30.76 -22.81)"/><path class="cls-6" d="M732.46,129.86H529.21a3.75,3.75,0,0,1-3.75-3.75h0a3.75,3.75,0,0,1,3.75-3.75H732.46a3.75,3.75,0,0,1,3.75,3.75h0A3.75,3.75,0,0,1,732.46,129.86Z" transform="translate(-30.76 -22.81)"/><path class="cls-6" d="M501.7,129.86h-45a3.75,3.75,0,0,1-3.75-3.75h0a3.75,3.75,0,0,1,3.75-3.75h45a3.75,3.75,0,0,1,3.75,3.75h0A3.75,3.75,0,0,1,501.7,129.86Z" transform="translate(-30.76 -22.81)"/><path class="cls-6" d="M783.11,161.55H590.5a3.75,3.75,0,0,1-3.75-3.75h0A3.75,3.75,0,0,1,590.5,154H783.11a3.75,3.75,0,0,1,3.75,3.76h0A3.75,3.75,0,0,1,783.11,161.55Z" transform="translate(-30.76 -22.81)"/><path class="cls-6" d="M562.36,161.55H456.67a3.75,3.75,0,0,1-3.75-3.75h0a3.75,3.75,0,0,1,3.75-3.76H562.36a3.75,3.75,0,0,1,3.75,3.76h0A3.75,3.75,0,0,1,562.36,161.55Z" transform="translate(-30.76 -22.81)"/><path class="cls-7" d="M834.94,200.68H379.11v95.06h456A372.93,372.93,0,0,1,834.94,200.68Z" transform="translate(-30.76 -22.81)"/><path class="cls-8" d="M462.18,300.74H318.91l-1.47-1.47a73.05,73.05,0,0,1,0-103.32l1.47-1.47H462.18L453.63,203a63.08,63.08,0,0,0,0,89.18Z" transform="translate(-30.76 -22.81)"/><path class="cls-9" d="M839.62,300.74H452.67l-.41-.41c-13.36-13.38-21.75-31.2-22.4-50.1A72.57,72.57,0,0,1,451.21,196l1.46-1.47h387a5,5,0,0,1,5,5h0a5,5,0,0,1-5,5H456.87a63.05,63.05,0,0,0,0,86.24H839.62a5,5,0,0,1,5,5h0A5,5,0,0,1,839.62,300.74Z" transform="translate(-30.76 -22.81)"/><path class="cls-6" d="M472.72,260.3h21.89a3.75,3.75,0,0,1,3.75,3.75h0a3.75,3.75,0,0,1-3.75,3.75H472.72a3.75,3.75,0,0,1-3.75-3.75h0A3.75,3.75,0,0,1,472.72,260.3Z" transform="translate(-30.76 -22.81)"/><path class="cls-6" d="M523.38,260.3H726.62a3.75,3.75,0,0,1,3.75,3.75h0a3.75,3.75,0,0,1-3.75,3.75H523.38a3.75,3.75,0,0,1-3.76-3.75h0A3.75,3.75,0,0,1,523.38,260.3Z" transform="translate(-30.76 -22.81)"/><path class="cls-6" d="M754.14,260.3h45a3.75,3.75,0,0,1,3.76,3.75h0a3.75,3.75,0,0,1-3.76,3.75h-45a3.75,3.75,0,0,1-3.76-3.75h0A3.75,3.75,0,0,1,754.14,260.3Z" transform="translate(-30.76 -22.81)"/><path class="cls-6" d="M472.72,228.61H665.33a3.76,3.76,0,0,1,3.76,3.76h0a3.75,3.75,0,0,1-3.76,3.75H472.72a3.75,3.75,0,0,1-3.75-3.75h0A3.75,3.75,0,0,1,472.72,228.61Z" transform="translate(-30.76 -22.81)"/><path class="cls-6" d="M693.48,228.61H799.16a3.76,3.76,0,0,1,3.76,3.76h0a3.75,3.75,0,0,1-3.76,3.75H693.48a3.75,3.75,0,0,1-3.76-3.75h0A3.76,3.76,0,0,1,693.48,228.61Z" transform="translate(-30.76 -22.81)"/></g><g id="Character"><path class="cls-10" d="M757,57.93c.34-11.77,15-16,15-16s-.4-1.14-.9-2.75c0,0,1.36,1.67,8.83-1.8S790,32.61,790,32.61A68.4,68.4,0,0,0,776.12,37c-3.43,1.52-5.51-.49-6.16-2-.57-1.29-1.48-8.56,2.06-5.26,6.31,5.91,42.93-16.33,55.29-2.08,12.07,13.91-9.84,18-9.84,18C795.58,51.78,782.38,69,776.55,78.38c-2.38,3.83-4.89,1-5.36-.31-1.51-4-.59-5.94,7.56-15.32,0,0-4.76,2.26-9.36,11.39-1.27-2.79-2.55-4.83-4.38-2-2.09,3.2-4.36,3.08-5.46.53-.24-.53-1-4.91,6.15-13.56,0,0-5.45,1.28-7.91,8.65A42.21,42.21,0,0,1,757,57.93Z" transform="translate(-30.76 -22.81)"/><path class="cls-3" d="M823.33,43.89s3.16-13-16.3-6.52-7.71,14.18-7.71,14.18Z" transform="translate(-30.76 -22.81)"/><path class="cls-11" d="M823.33,43.89s3.16-13-16.3-6.52-7.71,14.18-7.71,14.18Z" transform="translate(-30.76 -22.81)"/><path class="cls-3" d="M828.84,49.31s3.82-15.69-19.69-7.88-9.32,17.14-9.32,17.14Z" transform="translate(-30.76 -22.81)"/><path class="cls-10" d="M820.32,148.61S827.07,132.28,794,126s-39.45,1.22-29.75,13.33l13.39,9.25,27.2,9,11.64-5Z" transform="translate(-30.76 -22.81)"/><path class="cls-11" d="M820.32,148.61S827.07,132.28,794,126s-39.45,1.22-29.75,13.33l13.39,9.25,27.2,9,11.64-5Z" transform="translate(-30.76 -22.81)"/><path class="cls-3" d="M702.87,259.44C651.9,377,716.6,422.9,797.23,420.15s226.36-47.64,206.18-104C987.2,270.86,855.1,291,813.88,300.6l-20.76-32.88Z" transform="translate(-30.76 -22.81)"/><path class="cls-12" d="M702.87,259.44C651.9,377,716.6,422.9,797.23,420.15s226.36-47.64,206.18-104C987.2,270.86,855.1,291,813.88,300.6l-20.76-32.88Z" transform="translate(-30.76 -22.81)"/><polygon class="cls-13" points="868.45 369.02 830.76 377.05 815.34 380.33 811.25 362.9 827.17 357.23 860.36 345.42 868.45 369.02"/><polygon class="cls-12" points="868.45 369.02 830.76 377.05 827.17 357.23 860.36 345.42 868.45 369.02"/><polygon class="cls-3" points="828.98 353.87 839.79 347.89 846.19 380.72 836.65 380.02 828.98 353.87"/><polygon class="cls-14" points="828.98 353.87 839.79 347.89 846.19 380.72 836.65 380.02 828.98 353.87"/><path class="cls-15" d="M813.91,300.6s173.21-25.15,164.59,7c-6.58,24.57-78.15,54.11-78.15,54.11-66.71-32.6-121.66-31.38-121.66-31.38Z" transform="translate(-30.76 -22.81)"/><path class="cls-10" d="M707.48,227.89c4.56-27.93,12.26-66.84,21.93-83.52a19.26,19.26,0,0,1,6.42-7.31s3.9-.33,10.62-.33h.5a223.91,223.91,0,0,1,69,11.62,192.28,192.28,0,0,1,22.63,9.22s-9.59,58.07-20.46,69.49-25,40.72-25,40.72l-90.25-8.34S704.51,246,707.48,227.89Z" transform="translate(-30.76 -22.81)"/><path class="cls-13" d="M808.79,130.92a84.77,84.77,0,0,1,5.37-10.53l-24.07-15.18a49,49,0,0,1,0,6.64c-.53,8.34-3.45,22.68-16.32,27.8,0,0,5.59,21.32,23.29,23.12a11.88,11.88,0,0,0,2.86-.08,11.43,11.43,0,0,0,9.51-13.06s-3.19-1.42-3.36-7A30.13,30.13,0,0,1,808.79,130.92Z" transform="translate(-30.76 -22.81)"/><path class="cls-12" d="M787.09,106a45.55,45.55,0,0,1,.66,6.59l.14.16s5.37,29.91,18.9,28.85a30.11,30.11,0,0,1,1.5-12,90.15,90.15,0,0,1,4.28-11.12Z" transform="translate(-30.76 -22.81)"/><path class="cls-13" d="M806.43,139.37c27,10.92,40.25-4.06,47.25-34.63,5.62-24.52,1.92-39.27-21.37-46.36C793.65,46.59,769.49,118.61,806.43,139.37Z" transform="translate(-30.76 -22.81)"/><path class="cls-16" d="M835.16,118.53a6.62,6.62,0,0,0,6.92-.75,51.91,51.91,0,0,1-3.81-11.73Z" transform="translate(-30.76 -22.81)"/><path class="cls-10" d="M824.89,97.48c.48-1.69,1.63-2.78,2.77-2.78l0,0,4.64-.47a5.2,5.2,0,0,1-3.06,1.43,4.1,4.1,0,0,1,.34,3.24c-.56,1.91-2,3.19-3.31,2.78S824.33,99.43,824.89,97.48Z" transform="translate(-30.76 -22.81)"/><path class="cls-10" d="M846.15,103.79c.47-1.71,1.71-2.9,2.88-2.85l4.51-.45a5.31,5.31,0,0,1-3.06,1.42,4,4,0,0,1,.31,3.24c-.53,1.92-2,3.2-3.28,2.78S845.62,105.71,846.15,103.79Z" transform="translate(-30.76 -22.81)"/><path class="cls-10" d="M823.78,85.17h0a1,1,0,0,1,.93-1.06,13.62,13.62,0,0,1,10.79,5.61,1,1,0,0,1-.24,1.41,1,1,0,0,1-1.4-.24,11.77,11.77,0,0,0-9-4.78,1,1,0,0,1-.56-.13A1,1,0,0,1,823.78,85.17Z" transform="translate(-30.76 -22.81)"/><path class="cls-10" d="M856,95.86a10.13,10.13,0,0,0-8.88-1.39h0a1.06,1.06,0,0,1-1.33-.55h0a1,1,0,0,1,.53-1.31A12.3,12.3,0,0,1,857,94.13l.06,0a1,1,0,0,1,.29,1.35.92.92,0,0,1-.52.43A1,1,0,0,1,856,95.86Z" transform="translate(-30.76 -22.81)"/><path class="cls-10" d="M789.62,117.41C774.27,93.65,792,35,831.7,48.18s22.54,53.33,22.54,53.33c6.93-27.45-4.52-31.58-17.91-35.13a20.67,20.67,0,0,0-23.44,9.9c-5.87,10.74-18,13.56-18,13.56C784.53,99.76,789.73,117.41,789.62,117.41Z" transform="translate(-30.76 -22.81)"/><path class="cls-17" d="M828.78,124.61A7.77,7.77,0,0,1,821,118a.63.63,0,0,1,.54-.67.61.61,0,0,1,.66.52,6.44,6.44,0,0,0,6.57,5.52.62.62,0,0,1,0,1.22Z" transform="translate(-30.76 -22.81)"/><path class="cls-13" d="M826.69,197.29s7.92,53.06,13.23,63.26S878.58,305,878.58,305l8.9-4.61s-31.35-39.19-33.58-46.53-9.06-68.9-9.06-68.9Z" transform="translate(-30.76 -22.81)"/><path class="cls-10" d="M821.31,192.91l4.08-23.11,13.17-12.2c9.85,5.22,11.65,35.7,12.06,48.09.36,10.76.62,35.45,4.85,46.28,4.78,12.22,30.46,42.74,30.46,42.74l-12.16,8.68s-30.5-25.71-39.22-45.51S821.31,192.91,821.31,192.91Z" transform="translate(-30.76 -22.81)"/><path class="cls-3" d="M844.14,407.09a.58.58,0,0,1,.56-.22.57.57,0,0,1,.49.36c.06.25,2.92,8.75,1.18,12.16a2.85,2.85,0,0,1-1.59,1.28,2,2,0,0,1-2.23-.41,9.39,9.39,0,0,1-.37-6.68A40.06,40.06,0,0,1,844.14,407.09Zm1.61,10.73a24.33,24.33,0,0,0-1.26-8.92c-1.32,3.92-2.37,9.34-1.18,10.63.14.19.44.41,1.13.13a1.5,1.5,0,0,0,.93-.86,4.71,4.71,0,0,0,.32-1Z" transform="translate(-30.76 -22.81)"/><path class="cls-3" d="M844.24,407a.55.55,0,0,1,.51-.2c.25.08,6,1.84,7.64,5a3.8,3.8,0,0,1,.29,3c-.41,1.37-1.21,1.69-1.83,1.62-2.41-.09-6-6.15-6.66-9l-.07-.19A.57.57,0,0,1,844.24,407Zm7.53,7.2a2.71,2.71,0,0,0-.29-1.89,12.23,12.23,0,0,0-6.05-4.18c1,2.87,4,7.11,5.51,7.26.16,0,.53,0,.79-.9l0-.29Z" transform="translate(-30.76 -22.81)"/><path class="cls-10" d="M844.72,410.17c-7.57,5.44-13,6.12-18.71,22.86-1.26,3.59-10.94.06-9-8.76,3.15-14.59,4-11.13,6.53-23.58,2.25-10.5,3.3-18.11,4.86-26.63l.31-.68v0a3.21,3.21,0,0,1,4.23-1.67l18.31,8.17a1.94,1.94,0,0,1,1.1,2.15l-4.74,23.5A7.76,7.76,0,0,1,844.72,410.17Z" transform="translate(-30.76 -22.81)"/><polygon class="cls-13" points="887.74 358.57 924.59 369.8 939.71 374.38 934.82 391.62 918.15 388.86 883.4 383.17 887.74 358.57"/><polygon class="cls-12" points="887.74 358.57 924.59 369.8 918.15 388.86 883.4 383.17 887.74 358.57"/><path class="cls-3" d="M943.87,411c-78-6.72-167.09-35.49-167.09-35.49s-14.35-14.06-18-4,21.71,45.91,21.71,45.91-37.24-6.67-57.42-33.55-13-70,35.77-72.26S949.38,389,949.38,389Z" transform="translate(-30.76 -22.81)"/><polygon class="cls-3" points="914.95 390.25 902.58 390.25 912.89 358.62 920.9 364.01 914.95 390.25"/><polygon class="cls-14" points="914.95 390.25 902.58 390.25 912.89 358.62 920.9 364.01 914.95 390.25"/><path class="cls-3" d="M974,392.42a.56.56,0,0,1-.58.13.55.55,0,0,1-.42-.43c0-.26-1.5-9.11.76-12.19a2.82,2.82,0,0,1,1.77-1,2,2,0,0,1,2.14.76,9.4,9.4,0,0,1-.7,6.65A38.2,38.2,0,0,1,974,392.42Zm.12-10.84a24.32,24.32,0,0,0-.17,9c1.92-3.66,3.82-8.84,2.85-10.3-.1-.21-.37-.48-1.1-.32a1.48,1.48,0,0,0-1,.71,3.9,3.9,0,0,0-.48.9Z" transform="translate(-30.76 -22.81)"/><path class="cls-3" d="M973.86,392.54a.53.53,0,0,1-.53.11c-.23-.12-5.58-2.75-6.75-6.17a3.86,3.86,0,0,1,.19-3c.63-1.28,1.47-1.47,2.06-1.31,2.37.47,5,7,5.15,9.94l0,.19A.5.5,0,0,1,973.86,392.54Zm-6.28-8.31a2.65,2.65,0,0,0,0,1.92,12.15,12.15,0,0,0,5.3,5.08c-.55-3-2.85-7.66-4.29-8-.15,0-.52-.09-.92.76l-.08.28Z" transform="translate(-30.76 -22.81)"/><path class="cls-10" d="M973.91,389.29c8.33-4.17,13.81-4,22.09-19.6,1.82-3.34,10.81,1.68,7.53,10.08-5.43,13.91-5.72,10.35-10.19,22.25-3.89,10-6.14,17.35-9,25.52l-.42.62,0,0a3.21,3.21,0,0,1-4.44,1l-16.78-11a1.94,1.94,0,0,1-.74-2.3l8.41-22.44A7.76,7.76,0,0,1,973.91,389.29Z" transform="translate(-30.76 -22.81)"/><path class="cls-11" d="M730.9,262a101.51,101.51,0,0,1-6.29-11.68c-6.05-13-8-44.42-8.57-66.33a252.74,252.74,0,0,1,7.61-26.61l15.78-7.12,7.41,12.53,4.59,9.76s4.8,58.73,16.78,72.42c7.76,8.86,15.51,17.39,20,22.33Z" transform="translate(-30.76 -22.81)"/><path class="cls-13" d="M811.88,302.72s-52.5-49.2-57.51-62.51-8-72.71-8-72.71L722.52,179s14.2,72.15,18.62,79.24c6,9.61,60.29,49.83,60.29,49.83Z" transform="translate(-30.76 -22.81)"/><path class="cls-10" d="M735.81,137.09c18.56-4.56,15.19,40.21,15.78,54.62.47,11.27,2.75,36.76,8,48,7.64,16.34,46,55.18,46,55.18l-9.73,10.88s-50.74-35.59-59-48.23C730.3,247.46,699.26,146.07,735.81,137.09Z" transform="translate(-30.76 -22.81)"/><path class="cls-11" d="M833.08,185.37c.09,11.6-.11,39.78-3.86,55.72-2-8.24-3.65-17.28-4.9-25.29C827.66,207.26,830.68,195.85,833.08,185.37Z" transform="translate(-30.76 -22.81)"/><path class="cls-10" d="M797.22,86.44s10,4.09,2.37,15.26C799.59,101.7,802.19,93.35,797.22,86.44Z" transform="translate(-30.76 -22.81)"/><path class="cls-10" d="M796.61,176.23s32.73-27.47,21.28-32.17S791,164.41,796.61,176.23Z" transform="translate(-30.76 -22.81)"/><path class="cls-11" d="M764.68,148c-3.69-4.86-6.39-8.41-8.33-10.95q7.93.42,15.81,1.39l9.89,11.87,7.88,12.53,4,4.68v6.17S774.18,160.48,764.68,148Z" transform="translate(-30.76 -22.81)"/><path class="cls-10" d="M796.65,177.91s.14-44.27-28.71-50.19S797.7,174,796.65,177.91Z" transform="translate(-30.76 -22.81)"/><path class="cls-10" d="M856,81v-.48c4.18-.24,13.18.25,12.28,9.11-1.15,11.49-10.19,26.31-4.4,32.8,0,0-8.94-3.55-2.78-28.72C863.4,84.3,858.85,81.73,856,81Z" transform="translate(-30.76 -22.81)"/><path class="cls-13" d="M790.51,104.63c-16.88-9-8.9-22.79-1.45-21.38h0a10.63,10.63,0,0,1,8.13,12.67C795.15,103.85,792.92,105.93,790.51,104.63Z" transform="translate(-30.76 -22.81)"/><path class="cls-13" d="M888.25,297.91l19.49-2.29a3,3,0,0,1,2.63,1l10,11.34a3.05,3.05,0,0,1-.74,4.65l-2.92,1.7a3.06,3.06,0,0,1-2.4.29l-17.27-5.16-.36-.08-17-2.88a3.05,3.05,0,0,1-2.36-4h0a3,3,0,0,1,2-1.87l8.33-2.55A3.12,3.12,0,0,1,888.25,297.91Z" transform="translate(-30.76 -22.81)"/><path class="cls-13" d="M810.36,300.8l19.48-2.29a3,3,0,0,1,2.63,1l10,11.34a3.05,3.05,0,0,1-.74,4.65l-2.92,1.7a3.06,3.06,0,0,1-2.4.29l-17.27-5.15a1.9,1.9,0,0,0-.36-.09l-17-2.88a3,3,0,0,1-2.35-4h0a3,3,0,0,1,2-1.88l8.33-2.54A3.25,3.25,0,0,1,810.36,300.8Z" transform="translate(-30.76 -22.81)"/><rect class="cls-10" x="861.78" y="313.51" width="47.95" height="7.7" transform="translate(1740.76 611.91) rotate(180)"/><path class="cls-10" d="M801.15,313.51H864.4a1.36,1.36,0,0,1,1.36,1.36v6.34a0,0,0,0,1,0,0H801.15a0,0,0,0,1,0,0v-7.7A0,0,0,0,1,801.15,313.51Z" transform="translate(1636.15 611.92) rotate(180)"/><path class="cls-14" d="M801.15,313.51H864.4a1.36,1.36,0,0,1,1.36,1.36v6.34a0,0,0,0,1,0,0H801.15a0,0,0,0,1,0,0v-7.7A0,0,0,0,1,801.15,313.51Z" transform="translate(1636.15 611.92) rotate(180)"/><rect class="cls-10" x="848.37" y="315.99" width="7.7" height="2.73" transform="translate(1673.68 611.92) rotate(180)"/><rect class="cls-10" x="836.37" y="315.99" width="7.7" height="2.73" transform="translate(1649.68 611.92) rotate(180)"/><polygon class="cls-10" points="844.15 290.71 839.03 290.71 859.06 221.13 864.17 221.13 844.15 290.71"/><polygon class="cls-14" points="844.15 290.71 839.03 290.71 859.06 221.13 864.17 221.13 844.15 290.71"/><polygon class="cls-10" points="842.26 290.71 932.24 290.71 952.26 221.13 862.29 221.13 842.26 290.71"/><polygon class="cls-18" points="842.26 290.71 932.24 290.71 952.26 221.13 862.29 221.13 842.26 290.71"/><path class="cls-10" d="M868.62,313.51h93.66c1.57,0,2.85,1.72,2.85,3.85s-1.28,3.85-2.85,3.85H868.62c-1.58,0-2.86-1.72-2.86-3.85S867,313.51,868.62,313.51Z" transform="translate(-30.76 -22.81)"/><path class="cls-19" d="M868.62,313.51h93.66c1.57,0,2.85,1.72,2.85,3.85s-1.28,3.85-2.85,3.85H868.62c-1.58,0-2.86-1.72-2.86-3.85S867,313.51,868.62,313.51Z" transform="translate(-30.76 -22.81)"/><path class="cls-10" d="M865.76,317.36c0,2.13,1.28,3.85,2.86,3.85s2.85-1.72,2.85-3.85-1.28-3.85-2.85-3.85S865.76,315.23,865.76,317.36Z" transform="translate(-30.76 -22.81)"/><path class="cls-14" d="M865.76,317.36c0,2.13,1.28,3.85,2.86,3.85s2.85-1.72,2.85-3.85-1.28-3.85-2.85-3.85S865.76,315.23,865.76,317.36Z" transform="translate(-30.76 -22.81)"/></g></svg>