<svg id="Capa_1" data-name="Capa 1" xmlns="http://www.w3.org/2000/svg" viewBox="0 0 789.09 789"><defs><style>.cls-1{fill:#2563eb;}.cls-2{fill:#1d4ed8;}</style></defs><path class="cls-1" d="M794.29,409.9V526.49c0-214-166.24-396.12-380-403.81-204.53-7.16-376,141.25-404.69,336.16A378,378,0,0,1,5.2,400.46C5.2,177.75,189.8-1.78,414.26,6.26,628.05,13.78,794.29,195.93,794.29,409.9Z" transform="translate(-5.2 -6)"/><path class="cls-2" d="M794.29,526.49V795c-106.11,0-192.12-86-192.12-192.12V400.46c0-107-89.5-193.69-199.8-193.69A202.56,202.56,0,0,0,261.12,263.4c-36.18,35.14-58.56,83.56-58.56,137.06a190.74,190.74,0,0,0,9.09,58.38,197.65,197.65,0,0,0,49.47,78.67,202.56,202.56,0,0,0,141.25,56.63,70.09,70.09,0,0,1,70.1,70.1V795H399.75c-108.91,0-207.5-44.23-279-115.55A392.48,392.48,0,0,1,9.57,458.84C38.24,263.93,209.73,115.52,414.26,122.68,628.05,130.37,794.29,312.53,794.29,526.49Z" transform="translate(-5.2 -6)"/></svg>